<svg version="1.1" id="Layer_1" xmlns="http://www.w3.org/2000/svg" xmlns:xlink="http://www.w3.org/1999/xlink" x="0px" y="0px"
	 width="100%" viewBox="0 0 1132 385" enable-background="new 0 0 1132 385" xml:space="preserve">
<path fill="none" opacity="1.000000" stroke="none" 
	d="
M736.000000,386.000000 
	C490.666656,386.000000 245.833328,386.000000 1.000000,386.000000 
	C1.000000,257.666656 1.000000,129.333328 1.000000,1.000000 
	C378.333344,1.000000 755.666687,1.000000 1133.000000,1.000000 
	C1133.000000,129.333328 1133.000000,257.666656 1133.000000,386.000000 
	C1000.833313,386.000000 868.666687,386.000000 736.000000,386.000000 
M319.999512,147.492905 
	C321.920258,150.139191 324.555023,152.534821 325.592834,155.491058 
	C327.112762,159.820648 329.910767,160.063797 333.637665,160.049988 
	C359.294342,159.954910 384.951508,159.999985 410.608521,159.999969 
	C412.347748,159.999969 414.086945,159.999969 416.015167,159.999969 
	C408.924744,135.345352 378.708527,89.151848 328.095398,71.613327 
	C267.324158,50.554787 212.611084,60.508995 164.408646,103.966026 
	C150.634537,116.384094 126.939026,152.520416 129.052780,160.806824 
	C130.486984,159.191879 131.819427,158.120819 132.607239,156.739212 
	C142.461136,139.458115 156.361130,126.209778 173.362411,116.187317 
	C194.515274,103.717461 217.460358,99.007675 241.757690,102.151604 
	C257.558319,104.196098 272.597260,109.255836 286.438568,117.222267 
	C299.519440,124.751007 310.809082,134.463348 319.999512,147.492905 
M371.341309,324.942383 
	C390.966980,307.344727 406.876526,287.076996 416.086761,261.758148 
	C414.070160,262.376770 411.950806,263.250580 411.133972,264.807709 
	C401.182312,283.778412 385.979858,297.560791 367.544189,307.628448 
	C349.803192,317.316833 330.539581,321.960175 310.206818,319.888062 
	C300.197021,318.867981 290.136597,317.330292 280.402435,314.840790 
	C262.797302,310.338318 247.797211,300.630493 234.930923,288.113037 
	C228.322021,281.683289 223.219650,273.666840 217.705444,266.169586 
	C215.610046,263.320618 213.657959,261.816895 209.774048,261.874329 
	C190.944946,262.152771 172.109482,262.000000 153.276260,262.000000 
	C144.963547,262.000000 136.650833,262.000000 127.201859,262.000000 
	C129.167877,266.821167 130.611801,271.044220 132.558197,275.021362 
	C143.071793,296.504150 158.088745,314.543121 176.833603,329.098969 
	C203.693649,349.956512 234.822464,359.676544 268.602478,360.927887 
	C284.076202,361.501129 299.268005,359.484467 314.262207,355.147186 
	C335.252380,349.075439 354.106720,339.337280 371.341309,324.942383 
M268.075195,141.799973 
	C268.743561,137.683548 269.411926,133.567108 270.153473,128.999878 
	C267.778473,128.999878 265.970642,128.999878 264.162842,128.999878 
	C240.666199,128.999878 217.169342,128.947067 193.673096,129.045334 
	C189.082977,129.064514 184.417786,129.254105 179.922791,130.092239 
	C170.810303,131.791351 163.487198,136.496735 161.650726,146.064545 
	C160.235229,153.439178 159.675079,161.201935 160.242508,168.677673 
	C160.984909,178.458755 165.419846,186.623383 175.884460,189.292694 
	C181.376297,190.693573 187.101105,191.761093 192.743896,191.880127 
	C208.901062,192.220963 225.070099,192.013153 241.234421,191.991714 
	C245.659805,191.985840 248.658600,193.732147 250.113983,198.157166 
	C253.338120,207.959976 249.134445,213.995667 238.880966,213.998123 
	C215.717606,214.003693 192.554245,213.999878 169.390884,213.999878 
	C167.636566,213.999878 165.882248,213.999878 164.135040,213.999878 
	C163.659973,221.730743 163.230057,228.727112 162.783371,235.996338 
	C190.997482,235.996338 218.310959,236.082947 245.622559,235.896179 
	C249.402573,235.870346 253.173355,234.493027 257.178528,233.695541 
	C257.178528,227.639191 256.960358,221.979355 257.223633,216.342010 
	C257.784058,204.341721 257.794189,192.068680 270.152557,182.986755 
	C265.161163,180.140915 261.141663,176.895599 256.557526,175.483826 
	C251.170578,173.824783 245.304047,173.215134 239.626831,173.104111 
	C224.134979,172.801117 208.629761,173.170837 193.138611,172.850098 
	C190.175034,172.788742 186.242935,171.614227 184.523834,169.510208 
	C181.154648,165.386703 181.164001,160.297943 183.880173,155.301224 
	C186.224792,150.988037 190.048889,150.999710 194.035446,150.999817 
	C217.032166,151.000412 240.029449,150.919922 263.025055,151.079941 
	C266.803955,151.106247 268.054565,149.582306 268.002747,146.200424 
	C267.984863,145.034256 268.007080,143.867508 268.075195,141.799973 
M303.504883,267.319000 
	C300.007812,267.318604 296.509918,267.367615 293.013885,267.307861 
	C284.893707,267.169067 281.930573,264.202362 281.900482,256.046448 
	C281.852570,243.057037 281.881470,230.067337 281.889282,217.077744 
	C281.895721,206.380966 284.526276,203.692123 295.037537,203.684738 
	C313.522705,203.671738 332.009094,203.801163 350.492432,203.616196 
	C356.990051,203.551193 362.272644,205.198196 365.873932,211.997025 
	C369.821686,207.831818 373.317535,203.841751 377.155762,200.213898 
	C379.248505,198.235840 378.925446,196.687485 377.591187,194.636734 
	C372.145721,186.266876 364.281036,182.244431 354.490143,182.155273 
	C337.671692,182.002121 320.850067,182.019180 304.031311,182.154724 
	C296.390167,182.216278 288.697937,182.264832 281.126587,183.152756 
	C270.265167,184.426559 262.843292,190.419662 262.299225,201.237320 
	C261.182312,223.444809 260.819275,245.786224 261.984436,267.975983 
	C262.670349,281.039215 270.139984,287.365845 283.462982,287.872894 
	C308.060730,288.809052 332.709106,288.790924 357.330048,288.543701 
	C366.228821,288.454407 373.654572,284.042145 378.164734,275.974457 
	C378.860992,274.729004 378.707001,272.055511 377.813019,271.041901 
	C374.307800,267.067627 370.348694,263.493683 366.102509,259.323486 
	C362.769409,267.078583 356.131927,267.488861 348.966431,267.384186 
	C334.148132,267.167786 319.324463,267.319061 303.504883,267.319000 
M470.538971,233.000015 
	C467.429993,233.000015 464.321014,233.000015 461.185699,233.000015 
	C460.689117,238.602798 460.246674,243.594543 459.767578,248.999985 
	C463.019440,248.999985 465.487976,249.038223 467.954987,248.993881 
	C485.875305,248.671799 503.795746,248.355133 521.715149,247.988144 
	C528.320984,247.852875 535.231079,243.810211 536.373169,237.853302 
	C537.616333,231.369019 537.514160,224.538803 537.226685,217.892776 
	C537.113342,215.271774 535.375427,212.346466 533.576172,210.245956 
	C528.920166,204.810303 522.070740,204.368332 515.652771,204.121674 
	C504.341919,203.686981 493.002228,204.030243 481.674835,203.986862 
	C476.224915,203.965988 474.059052,201.836334 474.000122,196.677124 
	C473.937836,191.224289 476.118927,189.023468 481.820312,189.011414 
	C497.478912,188.978317 513.137695,188.999985 528.796387,188.999969 
	C530.414978,188.999969 532.033630,188.999969 533.674744,188.999969 
	C534.309082,183.410019 534.886536,178.321640 535.490295,173.000946 
	C515.768005,173.000946 496.281067,172.709183 476.811188,173.157913 
	C469.919647,173.316742 462.893036,175.337769 460.086731,182.921371 
	C456.987122,191.297638 456.793823,200.005478 460.220612,208.296631 
	C463.005035,215.033585 469.375336,216.791382 475.963776,216.932739 
	C487.286133,217.175629 498.621460,216.833084 509.942535,217.104279 
	C513.230469,217.183029 517.347107,217.578308 519.502625,219.553848 
	C521.409241,221.301254 522.454102,226.047989 521.414978,228.365448 
	C520.396851,230.635986 516.306396,232.708893 513.498840,232.797775 
	C499.519958,233.240356 485.519470,232.999985 470.538971,233.000015 
M831.002625,174.032883 
	C825.462402,176.110825 821.483093,179.740891 820.208496,185.666489 
	C819.523376,188.851639 819.019836,192.159531 819.064758,195.403290 
	C819.239319,207.990524 819.514282,220.580826 820.057800,233.156769 
	C820.379395,240.598770 823.938049,244.915024 831.347778,247.010468 
	C835.220520,248.105652 839.321838,248.843552 843.334045,248.912048 
	C856.826233,249.142365 870.333618,249.295181 883.817749,248.893829 
	C892.546936,248.634003 900.504395,246.146332 903.776611,237.313171 
	C900.299866,233.768875 897.071594,230.477890 894.696838,228.056992 
	C891.152710,229.785355 887.905457,232.653336 884.555725,232.778519 
	C870.579285,233.300827 856.565979,233.237595 842.578979,232.883209 
	C836.829773,232.737564 834.912109,230.852722 834.972961,225.074600 
	C835.072937,215.578384 834.963806,206.080170 835.014221,196.583176 
	C835.042847,191.186386 837.103943,189.039780 842.393250,189.019043 
	C856.555664,188.963486 870.719421,188.916870 884.879761,189.097214 
	C886.819519,189.121918 889.679199,189.901962 890.503601,191.288940 
	C893.362183,196.097992 895.273865,193.321121 897.497192,190.998840 
	C898.648804,189.796112 899.786682,188.570160 901.032593,187.470078 
	C903.221619,185.537323 903.644958,183.820129 901.774292,181.110901 
	C898.137634,175.843872 893.266602,173.104706 887.059021,173.047287 
	C871.564819,172.903961 856.068054,172.949188 840.573120,173.045227 
	C837.660828,173.063263 834.752136,173.667648 831.002625,174.032883 
M979.000000,219.500000 
	C979.000000,229.250320 979.000000,239.000641 979.000000,248.004105 
	C999.495605,248.004105 1019.373657,248.345261 1039.232300,247.873123 
	C1050.710083,247.600266 1054.994873,242.282837 1054.999146,230.656769 
	C1055.003174,220.006409 1055.057983,209.355606 1054.976074,198.705872 
	C1054.933716,193.224518 1053.420776,187.862305 1048.443848,185.260971 
	C1044.597290,183.250412 1039.835083,182.226562 1035.452881,182.140106 
	C1018.152771,181.798798 1000.841980,181.993942 983.535095,182.011292 
	C982.101196,182.012726 980.667480,182.172775 979.000000,182.273193 
	C979.000000,194.580505 979.000000,206.540253 979.000000,219.500000 
M677.000000,201.500427 
	C677.000000,217.258347 677.000000,233.016281 677.000000,248.619080 
	C681.741577,248.619080 685.799011,248.619080 690.191101,248.619080 
	C690.191101,233.010193 690.191101,217.780045 690.191101,202.549881 
	C690.609558,202.247040 691.028015,201.944183 691.446472,201.641342 
	C692.127930,202.760361 692.630005,204.052582 693.517944,204.972244 
	C705.057251,216.923355 716.651245,228.821686 728.231812,240.732986 
	C728.464050,240.971893 728.786072,241.167023 728.920288,241.451431 
	C733.174866,250.465851 740.863220,249.642288 748.648804,248.605789 
	C748.648804,226.317093 748.648804,204.258179 748.648804,182.396774 
	C744.229553,182.396774 740.168030,182.396774 735.773071,182.396774 
	C735.773071,197.684341 735.773071,212.576965 735.773071,224.651917 
	C725.243652,214.926453 713.432861,204.027588 701.651917,193.096558 
	C701.206238,192.683029 701.187073,191.805695 700.738098,191.400421 
	C697.230835,188.234116 694.115051,184.067337 689.985901,182.327179 
	C686.356934,180.797836 681.573608,182.007553 677.479553,182.007553 
	C677.221741,182.892868 677.056641,183.198151 677.055054,183.504288 
	C677.025024,189.169678 677.014587,194.835175 677.000000,201.500427 
M589.513062,188.030472 
	C587.959106,186.032333 586.794922,182.956940 584.781616,182.228592 
	C577.351807,179.540741 571.553284,182.539185 567.730469,189.590485 
	C561.070801,201.874313 554.087097,213.982178 547.380554,226.241089 
	C543.374634,233.563461 539.637512,241.032898 535.709595,248.570618 
	C545.228455,249.711823 554.066895,250.832077 556.640198,238.937637 
	C556.864197,237.902176 558.055786,237.102692 558.402283,236.061874 
	C559.309753,233.336014 561.187988,232.898712 563.788818,232.946548 
	C571.771973,233.093369 579.786560,233.406769 587.737305,232.878372 
	C594.798584,232.409073 600.280640,233.299011 602.180969,241.351364 
	C602.643555,243.311371 604.143005,245.082916 605.385864,246.779968 
	C606.055908,247.694839 607.163574,248.850235 608.122559,248.896988 
	C612.670166,249.118713 617.234558,248.996033 622.489929,248.996033 
	C611.345520,228.341766 600.640625,208.502182 589.513062,188.030472 
M968.327026,248.999802 
	C969.549866,248.192459 971.726746,247.488907 971.827759,246.559555 
	C972.233276,242.831543 971.995483,239.033569 971.995483,234.814911 
	C955.343933,234.814911 939.278503,234.814911 922.753540,234.814911 
	C922.753540,216.946533 922.753540,199.546936 922.753540,182.215515 
	C918.000977,182.215515 913.721008,182.215515 909.246338,182.215515 
	C909.246338,204.491089 909.246338,226.550903 909.246338,248.999954 
	C928.780518,248.999954 948.070923,248.999954 968.327026,248.999802 
M759.566040,195.999985 
	C764.982483,195.999985 770.398926,195.999985 776.252747,195.999985 
	C776.252747,214.073227 776.252747,231.448013 776.252747,248.604187 
	C780.782227,248.604187 784.834839,248.604187 789.164185,248.604187 
	C789.164185,230.957642 789.164185,213.705536 789.164185,195.973969 
	C797.165039,195.973969 804.891174,195.973969 812.709534,195.973969 
	C812.709534,191.098801 812.709534,186.712708 812.709534,182.293365 
	C792.385254,182.293365 772.352905,182.293365 752.329285,182.293365 
	C752.329285,186.978775 752.329285,191.364914 752.329285,195.999985 
	C754.633179,195.999985 756.609619,195.999985 759.566040,195.999985 
M635.711060,248.998032 
	C640.778381,248.998032 645.845703,248.998032 650.621338,248.998032 
	C650.621338,231.186676 650.621338,214.166107 650.621338,197.226379 
	C644.644226,197.226379 639.048279,197.226379 633.014221,197.226379 
	C633.014221,214.012634 632.995422,230.576797 633.087646,247.140305 
	C633.091064,247.758057 634.174744,248.369766 635.711060,248.998032 
M659.039429,174.062943 
	C663.246765,175.365921 664.028015,177.932816 661.758728,181.562683 
	C659.904663,184.528381 657.996216,187.460129 656.111877,190.406921 
	C660.465393,189.153870 664.547058,187.406754 667.703430,184.613861 
	C675.284668,177.905670 671.882263,168.843307 663.363220,166.354446 
	C646.559631,161.445221 630.217773,163.815613 614.832703,172.092819 
	C609.482666,174.971176 607.387268,179.939575 608.889893,184.633789 
	C610.971252,191.135864 617.119202,194.634521 626.159180,193.169571 
	C623.717529,191.377487 621.746216,190.496536 620.597900,188.988800 
	C615.852356,182.757767 615.100769,182.615982 621.912659,178.660797 
	C633.233093,172.087799 645.620239,171.810852 659.039429,174.062943 
M634.043091,178.442795 
	C633.253906,181.367432 631.646973,184.353531 631.861023,187.202789 
	C632.210754,191.856827 636.487976,193.053864 640.317627,193.910156 
	C643.258850,194.567825 648.950256,190.925568 649.895569,188.187775 
	C651.370117,183.917374 649.510193,179.375839 645.704773,177.265396 
	C641.802429,175.101227 638.218445,175.936096 634.043091,178.442795 
z"/>
<path fill="#12BCC1" opacity="1.000000" stroke="none" 
	d="
M319.747253,147.232056 
	C310.809082,134.463348 299.519440,124.751007 286.438568,117.222267 
	C272.597260,109.255836 257.558319,104.196098 241.757690,102.151604 
	C217.460358,99.007675 194.515274,103.717461 173.362411,116.187317 
	C156.361130,126.209778 142.461136,139.458115 132.607239,156.739212 
	C131.819427,158.120819 130.486984,159.191879 129.052780,160.806824 
	C126.939026,152.520416 150.634537,116.384094 164.408646,103.966026 
	C212.611084,60.508995 267.324158,50.554787 328.095398,71.613327 
	C378.708527,89.151848 408.924744,135.345352 416.015167,159.999969 
	C414.086945,159.999969 412.347748,159.999969 410.608521,159.999969 
	C384.951508,159.999985 359.294342,159.954910 333.637665,160.049988 
	C329.910767,160.063797 327.112762,159.820648 325.592834,155.491058 
	C324.555023,152.534821 321.920258,150.139191 319.747253,147.232056 
z"/>
<path fill="#0F75BC" opacity="1.000000" stroke="none" 
	d="
M370.986206,325.002991 
	C354.106720,339.337280 335.252380,349.075439 314.262207,355.147186 
	C299.268005,359.484467 284.076202,361.501129 268.602478,360.927887 
	C234.822464,359.676544 203.693649,349.956512 176.833603,329.098969 
	C158.088745,314.543121 143.071793,296.504150 132.558197,275.021362 
	C130.611801,271.044220 129.167877,266.821167 127.201859,262.000000 
	C136.650833,262.000000 144.963547,262.000000 153.276260,262.000000 
	C172.109482,262.000000 190.944946,262.152771 209.774048,261.874329 
	C213.657959,261.816895 215.610046,263.320618 217.705444,266.169586 
	C223.219650,273.666840 228.322021,281.683289 234.930923,288.113037 
	C247.797211,300.630493 262.797302,310.338318 280.402435,314.840790 
	C290.136597,317.330292 300.197021,318.867981 310.206818,319.888062 
	C330.539581,321.960175 349.803192,317.316833 367.544189,307.628448 
	C385.979858,297.560791 401.182312,283.778412 411.133972,264.807709 
	C411.950806,263.250580 414.070160,262.376770 416.086761,261.758148 
	C406.876526,287.076996 390.966980,307.344727 370.986206,325.002991 
z"/>
<path fill="#0F75BC" opacity="1.000000" stroke="none" 
	d="
M268.043091,142.250488 
	C268.007080,143.867508 267.984863,145.034256 268.002747,146.200424 
	C268.054565,149.582306 266.803955,151.106247 263.025055,151.079941 
	C240.029449,150.919922 217.032166,151.000412 194.035446,150.999817 
	C190.048889,150.999710 186.224792,150.988037 183.880173,155.301224 
	C181.164001,160.297943 181.154648,165.386703 184.523834,169.510208 
	C186.242935,171.614227 190.175034,172.788742 193.138611,172.850098 
	C208.629761,173.170837 224.134979,172.801117 239.626831,173.104111 
	C245.304047,173.215134 251.170578,173.824783 256.557526,175.483826 
	C261.141663,176.895599 265.161163,180.140915 270.152557,182.986755 
	C257.794189,192.068680 257.784058,204.341721 257.223633,216.342010 
	C256.960358,221.979355 257.178528,227.639191 257.178528,233.695541 
	C253.173355,234.493027 249.402573,235.870346 245.622559,235.896179 
	C218.310959,236.082947 190.997482,235.996338 162.783371,235.996338 
	C163.230057,228.727112 163.659973,221.730743 164.135040,213.999878 
	C165.882248,213.999878 167.636566,213.999878 169.390884,213.999878 
	C192.554245,213.999878 215.717606,214.003693 238.880966,213.998123 
	C249.134445,213.995667 253.338120,207.959976 250.113983,198.157166 
	C248.658600,193.732147 245.659805,191.985840 241.234421,191.991714 
	C225.070099,192.013153 208.901062,192.220963 192.743896,191.880127 
	C187.101105,191.761093 181.376297,190.693573 175.884460,189.292694 
	C165.419846,186.623383 160.984909,178.458755 160.242508,168.677673 
	C159.675079,161.201935 160.235229,153.439178 161.650726,146.064545 
	C163.487198,136.496735 170.810303,131.791351 179.922791,130.092239 
	C184.417786,129.254105 189.082977,129.064514 193.673096,129.045334 
	C217.169342,128.947067 240.666199,128.999878 264.162842,128.999878 
	C265.970642,128.999878 267.778473,128.999878 270.153473,128.999878 
	C269.411926,133.567108 268.743561,137.683548 268.043091,142.250488 
z"/>
<path fill="#2D3C93" opacity="1.000000" stroke="none" 
	d="
M304.003967,267.319061 
	C319.324463,267.319061 334.148132,267.167786 348.966431,267.384186 
	C356.131927,267.488861 362.769409,267.078583 366.102509,259.323486 
	C370.348694,263.493683 374.307800,267.067627 377.813019,271.041901 
	C378.707001,272.055511 378.860992,274.729004 378.164734,275.974457 
	C373.654572,284.042145 366.228821,288.454407 357.330048,288.543701 
	C332.709106,288.790924 308.060730,288.809052 283.462982,287.872894 
	C270.139984,287.365845 262.670349,281.039215 261.984436,267.975983 
	C260.819275,245.786224 261.182312,223.444809 262.299225,201.237320 
	C262.843292,190.419662 270.265167,184.426559 281.126587,183.152756 
	C288.697937,182.264832 296.390167,182.216278 304.031311,182.154724 
	C320.850067,182.019180 337.671692,182.002121 354.490143,182.155273 
	C364.281036,182.244431 372.145721,186.266876 377.591187,194.636734 
	C378.925446,196.687485 379.248505,198.235840 377.155762,200.213898 
	C373.317535,203.841751 369.821686,207.831818 365.873932,211.997025 
	C362.272644,205.198196 356.990051,203.551193 350.492432,203.616196 
	C332.009094,203.801163 313.522705,203.671738 295.037537,203.684738 
	C284.526276,203.692123 281.895721,206.380966 281.889282,217.077744 
	C281.881470,230.067337 281.852570,243.057037 281.900482,256.046448 
	C281.930573,264.202362 284.893707,267.169067 293.013885,267.307861 
	C296.509918,267.367615 300.007812,267.318604 304.003967,267.319061 
z"/>
<path fill="#0F75BC" opacity="1.000000" stroke="none" 
	d="
M471.032776,233.000015 
	C485.519470,232.999985 499.519958,233.240356 513.498840,232.797775 
	C516.306396,232.708893 520.396851,230.635986 521.414978,228.365448 
	C522.454102,226.047989 521.409241,221.301254 519.502625,219.553848 
	C517.347107,217.578308 513.230469,217.183029 509.942535,217.104279 
	C498.621460,216.833084 487.286133,217.175629 475.963776,216.932739 
	C469.375336,216.791382 463.005035,215.033585 460.220612,208.296631 
	C456.793823,200.005478 456.987122,191.297638 460.086731,182.921371 
	C462.893036,175.337769 469.919647,173.316742 476.811188,173.157913 
	C496.281067,172.709183 515.768005,173.000946 535.490295,173.000946 
	C534.886536,178.321640 534.309082,183.410019 533.674744,188.999969 
	C532.033630,188.999969 530.414978,188.999969 528.796387,188.999969 
	C513.137695,188.999985 497.478912,188.978317 481.820312,189.011414 
	C476.118927,189.023468 473.937836,191.224289 474.000122,196.677124 
	C474.059052,201.836334 476.224915,203.965988 481.674835,203.986862 
	C493.002228,204.030243 504.341919,203.686981 515.652771,204.121674 
	C522.070740,204.368332 528.920166,204.810303 533.576172,210.245956 
	C535.375427,212.346466 537.113342,215.271774 537.226685,217.892776 
	C537.514160,224.538803 537.616333,231.369019 536.373169,237.853302 
	C535.231079,243.810211 528.320984,247.852875 521.715149,247.988144 
	C503.795746,248.355133 485.875305,248.671799 467.954987,248.993881 
	C465.487976,249.038223 463.019440,248.999985 459.767578,248.999985 
	C460.246674,243.594543 460.689117,238.602798 461.185699,233.000015 
	C464.321014,233.000015 467.429993,233.000015 471.032776,233.000015 
z"/>
<path fill="#283891" opacity="1.000000" stroke="none" 
	d="
M831.422241,174.017166 
	C834.752136,173.667648 837.660828,173.063263 840.573120,173.045227 
	C856.068054,172.949188 871.564819,172.903961 887.059021,173.047287 
	C893.266602,173.104706 898.137634,175.843872 901.774292,181.110901 
	C903.644958,183.820129 903.221619,185.537323 901.032593,187.470078 
	C899.786682,188.570160 898.648804,189.796112 897.497192,190.998840 
	C895.273865,193.321121 893.362183,196.097992 890.503601,191.288940 
	C889.679199,189.901962 886.819519,189.121918 884.879761,189.097214 
	C870.719421,188.916870 856.555664,188.963486 842.393250,189.019043 
	C837.103943,189.039780 835.042847,191.186386 835.014221,196.583176 
	C834.963806,206.080170 835.072937,215.578384 834.972961,225.074600 
	C834.912109,230.852722 836.829773,232.737564 842.578979,232.883209 
	C856.565979,233.237595 870.579285,233.300827 884.555725,232.778519 
	C887.905457,232.653336 891.152710,229.785355 894.696838,228.056992 
	C897.071594,230.477890 900.299866,233.768875 903.776611,237.313171 
	C900.504395,246.146332 892.546936,248.634003 883.817749,248.893829 
	C870.333618,249.295181 856.826233,249.142365 843.334045,248.912048 
	C839.321838,248.843552 835.220520,248.105652 831.347778,247.010468 
	C823.938049,244.915024 820.379395,240.598770 820.057800,233.156769 
	C819.514282,220.580826 819.239319,207.990524 819.064758,195.403290 
	C819.019836,192.159531 819.523376,188.851639 820.208496,185.666489 
	C821.483093,179.740891 825.462402,176.110825 831.422241,174.017166 
z"/>
<path fill="#283891" opacity="1.000000" stroke="none" 
	d="
M979.000000,219.000000 
	C979.000000,206.540253 979.000000,194.580505 979.000000,182.273193 
	C980.667480,182.172775 982.101196,182.012726 983.535095,182.011292 
	C1000.841980,181.993942 1018.152771,181.798798 1035.452881,182.140106 
	C1039.835083,182.226562 1044.597290,183.250412 1048.443848,185.260971 
	C1053.420776,187.862305 1054.933716,193.224518 1054.976074,198.705872 
	C1055.057983,209.355606 1055.003174,220.006409 1054.999146,230.656769 
	C1054.994873,242.282837 1050.710083,247.600266 1039.232300,247.873123 
	C1019.373657,248.345261 999.495605,248.004105 979.000000,248.004105 
	C979.000000,239.000641 979.000000,229.250320 979.000000,219.000000 
M1041.000000,213.507370 
	C1041.000000,209.848953 1040.810791,206.178162 1041.049072,202.535339 
	C1041.332764,198.198715 1038.644897,196.195465 1035.208984,196.126099 
	C1021.291443,195.845184 1007.364990,196.009460 993.223145,196.009460 
	C993.223145,209.144211 993.223145,221.852600 993.223145,234.990662 
	C1007.361389,234.990662 1021.287476,235.154236 1035.204590,234.874542 
	C1038.642456,234.805435 1041.282593,232.803055 1041.055054,228.469421 
	C1040.811035,223.826050 1041.000000,219.159943 1041.000000,213.507370 
z"/>
<path fill="#0F75BC" opacity="1.000000" stroke="none" 
	d="
M677.000000,201.000534 
	C677.014587,194.835175 677.025024,189.169678 677.055054,183.504288 
	C677.056641,183.198151 677.221741,182.892868 677.479553,182.007553 
	C681.573608,182.007553 686.356934,180.797836 689.985901,182.327179 
	C694.115051,184.067337 697.230835,188.234116 700.738098,191.400421 
	C701.187073,191.805695 701.206238,192.683029 701.651917,193.096558 
	C713.432861,204.027588 725.243652,214.926453 735.773071,224.651917 
	C735.773071,212.576965 735.773071,197.684341 735.773071,182.396774 
	C740.168030,182.396774 744.229553,182.396774 748.648804,182.396774 
	C748.648804,204.258179 748.648804,226.317093 748.648804,248.605789 
	C740.863220,249.642288 733.174866,250.465851 728.920288,241.451431 
	C728.786072,241.167023 728.464050,240.971893 728.231812,240.732986 
	C716.651245,228.821686 705.057251,216.923355 693.517944,204.972244 
	C692.630005,204.052582 692.127930,202.760361 691.446472,201.641342 
	C691.028015,201.944183 690.609558,202.247040 690.191101,202.549881 
	C690.191101,217.780045 690.191101,233.010193 690.191101,248.619080 
	C685.799011,248.619080 681.741577,248.619080 677.000000,248.619080 
	C677.000000,233.016281 677.000000,217.258347 677.000000,201.000534 
z"/>
<path fill="#0F75BC" opacity="1.000000" stroke="none" 
	d="
M589.724426,188.346527 
	C600.640625,208.502182 611.345520,228.341766 622.489929,248.996033 
	C617.234558,248.996033 612.670166,249.118713 608.122559,248.896988 
	C607.163574,248.850235 606.055908,247.694839 605.385864,246.779968 
	C604.143005,245.082916 602.643555,243.311371 602.180969,241.351364 
	C600.280640,233.299011 594.798584,232.409073 587.737305,232.878372 
	C579.786560,233.406769 571.771973,233.093369 563.788818,232.946548 
	C561.187988,232.898712 559.309753,233.336014 558.402283,236.061874 
	C558.055786,237.102692 556.864197,237.902176 556.640198,238.937637 
	C554.066895,250.832077 545.228455,249.711823 535.709595,248.570618 
	C539.637512,241.032898 543.374634,233.563461 547.380554,226.241089 
	C554.087097,213.982178 561.070801,201.874313 567.730469,189.590485 
	C571.553284,182.539185 577.351807,179.540741 584.781616,182.228592 
	C586.794922,182.956940 587.959106,186.032333 589.724426,188.346527 
M591.123352,219.570557 
	C587.240845,212.336548 583.358337,205.102524 578.960083,196.907562 
	C574.209412,205.686417 569.959290,213.540298 565.382935,221.996902 
	C574.197510,221.996902 582.004211,222.038193 589.808411,221.918686 
	C590.433533,221.909103 591.041687,220.791016 591.123352,219.570557 
z"/>
<path fill="#283891" opacity="1.000000" stroke="none" 
	d="
M967.844177,248.999878 
	C948.070923,248.999954 928.780518,248.999954 909.246338,248.999954 
	C909.246338,226.550903 909.246338,204.491089 909.246338,182.215515 
	C913.721008,182.215515 918.000977,182.215515 922.753540,182.215515 
	C922.753540,199.546936 922.753540,216.946533 922.753540,234.814911 
	C939.278503,234.814911 955.343933,234.814911 971.995483,234.814911 
	C971.995483,239.033569 972.233276,242.831543 971.827759,246.559555 
	C971.726746,247.488907 969.549866,248.192459 967.844177,248.999878 
z"/>
<path fill="#0F75BC" opacity="1.000000" stroke="none" 
	d="
M759.076050,195.999985 
	C756.609619,195.999985 754.633179,195.999985 752.329285,195.999985 
	C752.329285,191.364914 752.329285,186.978775 752.329285,182.293365 
	C772.352905,182.293365 792.385254,182.293365 812.709534,182.293365 
	C812.709534,186.712708 812.709534,191.098801 812.709534,195.973969 
	C804.891174,195.973969 797.165039,195.973969 789.164185,195.973969 
	C789.164185,213.705536 789.164185,230.957642 789.164185,248.604187 
	C784.834839,248.604187 780.782227,248.604187 776.252747,248.604187 
	C776.252747,231.448013 776.252747,214.073227 776.252747,195.999985 
	C770.398926,195.999985 764.982483,195.999985 759.076050,195.999985 
z"/>
<path fill="#0F75BC" opacity="1.000000" stroke="none" 
	d="
M635.233032,248.991150 
	C634.174744,248.369766 633.091064,247.758057 633.087646,247.140305 
	C632.995422,230.576797 633.014221,214.012634 633.014221,197.226379 
	C639.048279,197.226379 644.644226,197.226379 650.621338,197.226379 
	C650.621338,214.166107 650.621338,231.186676 650.621338,248.998032 
	C645.845703,248.998032 640.778381,248.998032 635.233032,248.991150 
z"/>
<path fill="#FDB725" opacity="1.000000" stroke="none" 
	d="
M658.620117,174.033875 
	C645.620239,171.810852 633.233093,172.087799 621.912659,178.660797 
	C615.100769,182.615982 615.852356,182.757767 620.597900,188.988800 
	C621.746216,190.496536 623.717529,191.377487 626.159180,193.169571 
	C617.119202,194.634521 610.971252,191.135864 608.889893,184.633789 
	C607.387268,179.939575 609.482666,174.971176 614.832703,172.092819 
	C630.217773,163.815613 646.559631,161.445221 663.363220,166.354446 
	C671.882263,168.843307 675.284668,177.905670 667.703430,184.613861 
	C664.547058,187.406754 660.465393,189.153870 656.111877,190.406921 
	C657.996216,187.460129 659.904663,184.528381 661.758728,181.562683 
	C664.028015,177.932816 663.246765,175.365921 658.620117,174.033875 
z"/>
<path fill="#0F75BC" opacity="1.000000" stroke="none" 
	d="
M634.337036,178.176208 
	C638.218445,175.936096 641.802429,175.101227 645.704773,177.265396 
	C649.510193,179.375839 651.370117,183.917374 649.895569,188.187775 
	C648.950256,190.925568 643.258850,194.567825 640.317627,193.910156 
	C636.487976,193.053864 632.210754,191.856827 631.861023,187.202789 
	C631.646973,184.353531 633.253906,181.367432 634.337036,178.176208 
z"/>
<path fill="#FFFFFF" opacity="1.000000" stroke="none" 
	d="
M1041.000000,214.005569 
	C1041.000000,219.159943 1040.811035,223.826050 1041.055054,228.469421 
	C1041.282593,232.803055 1038.642456,234.805435 1035.204590,234.874542 
	C1021.287476,235.154236 1007.361389,234.990662 993.223145,234.990662 
	C993.223145,221.852600 993.223145,209.144211 993.223145,196.009460 
	C1007.364990,196.009460 1021.291443,195.845184 1035.208984,196.126099 
	C1038.644897,196.195465 1041.332764,198.198715 1041.049072,202.535339 
	C1040.810791,206.178162 1041.000000,209.848953 1041.000000,214.005569 
z"/>
<path fill="#FFFFFF" opacity="1.000000" stroke="none" 
	d="
M591.390503,219.879303 
	C591.041687,220.791016 590.433533,221.909103 589.808411,221.918686 
	C582.004211,222.038193 574.197510,221.996902 565.382935,221.996902 
	C569.959290,213.540298 574.209412,205.686417 578.960083,196.907562 
	C583.358337,205.102524 587.240845,212.336548 591.390503,219.879303 
z"/>
</svg>